<svg width="18" height="18" viewBox="0 0 18 18" fill="none" xmlns="http://www.w3.org/2000/svg">
<path fill-rule="evenodd" clip-rule="evenodd" d="M13.5798 2.39955e-07H3.4789C3.07363 -6.29295e-06 2.73183 -1.18017e-05 2.45046 0.019186C2.15645 0.0392459 1.87366 0.082767 1.59782 0.197026C0.963606 0.459726 0.459726 0.963606 0.197026 1.59782C0.0827672 1.87366 0.0392461 2.15645 0.0191862 2.45046C-1.14832e-05 2.73183 -6.09808e-06 3.07361 2.88236e-07 3.47888V9.97276C-1.40455e-05 11.6518 -2.54661e-05 12.9889 0.140884 14.0369C0.286297 15.1185 0.594126 16.0048 1.29466 16.7053C1.99519 17.4059 2.88149 17.7137 3.96306 17.8591C5.01113 18 6.34819 18 8.02723 18H10.4233C11.8871 18 13.0531 18 13.977 17.8908C14.9278 17.7784 15.7201 17.5414 16.3839 16.9967C16.6077 16.813 16.813 16.6077 16.9967 16.3839C17.5414 15.7201 17.7784 14.9278 17.8908 13.977C18 13.0531 18 11.8871 18 10.4233V10.3246C18 8.86073 18 7.69475 17.8908 6.77089C17.7784 5.82002 17.5414 5.02772 16.9967 4.36393C16.813 4.14011 16.6077 3.93489 16.3839 3.75121C15.7201 3.20645 14.9278 2.96944 13.977 2.85704C13.0531 2.74784 11.8871 2.74785 10.4232 2.74786L1.51922 2.74786C1.52146 2.67717 1.52447 2.61288 1.52853 2.55344C1.54333 2.33643 1.56954 2.23753 1.59472 2.17676C1.70387 1.91324 1.91324 1.70387 2.17676 1.59472C2.23753 1.56954 2.33643 1.54333 2.55344 1.52853C2.77718 1.51326 3.06712 1.51285 3.50428 1.51285H13.5798C13.9975 1.51285 14.3362 1.17419 14.3362 0.756425C14.3362 0.338663 13.9975 2.39955e-07 13.5798 2.39955e-07ZM1.51285 9.91595V4.26071H10.3739C11.8981 4.26071 12.9746 4.26195 13.7994 4.35944C14.6074 4.45495 15.0746 4.63376 15.4242 4.92066C15.5714 5.04147 15.7064 5.17646 15.8272 5.32367C16.1141 5.67325 16.2929 6.14044 16.3884 6.94848C16.4859 7.77322 16.4872 8.84979 16.4872 10.3739C16.4872 11.8981 16.4859 12.9746 16.3884 13.7994C16.2929 14.6074 16.1141 15.0746 15.8272 15.4242C15.7064 15.5714 15.5714 15.7064 15.4242 15.8272C15.0746 16.1141 14.6074 16.2929 13.7994 16.3884C12.9746 16.4859 11.8981 16.4872 10.3739 16.4872H8.08405C6.3355 16.4872 5.10022 16.4855 4.16464 16.3598C3.25085 16.2369 2.737 16.0082 2.3644 15.6356C1.99181 15.263 1.7631 14.7492 1.64024 13.8354C1.51446 12.8998 1.51285 11.6645 1.51285 9.91595Z" fill="#0063A9"/>
<path d="M14.0001 10.9999C14.0001 11.5522 13.5523 11.9999 13.0001 11.9999C12.4478 11.9999 12.0001 11.5522 12.0001 10.9999C12.0001 10.4476 12.4478 9.99993 13.0001 9.99993C13.5523 9.99993 14.0001 10.4476 14.0001 10.9999Z" fill="#0063A9"/>
</svg>
